# xmcd
#
# Track frame offsets: 
#        150
#        16212
#        35117
#        52110
#        69800
#        91192
#        105205
#        116060
#        127415
#        143720
#        155392
#        164665
#        179067
#        200812
#        213947
#        227297
#        245475
#        264547
#        275302
#        290497
#
# Disc length: 4058 seconds
#
# Revision: 0
# Processed by: cddbd v1.5.2PL0 Copyright (c) Steve Scherf et al.
# Submitted via: ExactAudioCopy v0.95b4
#
DISCID=280fd814
DTITLE=Teixeirinha - Teixeirinha - Raízes dos Pampas vol. 2
DYEAR=1900
DGENRE=Gaucha
TTITLE0=O Colono
TTITLE1=Tropeiro Velho
TTITLE2=Querência Amada
TTITLE3=O Presidiário
TTITLE4=Desafio do Grenal
TTITLE5=Amor de Contrabando
TTITLE6=Cinzeiro Amigo
TTITLE7=Improvisando
TTITLE8=Dorme Angelita
TTITLE9=Vida Fantasia
TTITLE10=Errar é Humano
TTITLE11=A Fazendinha
TTITLE12=Entre a Cruz e o Amor
TTITLE13=Lindo Rancho
TTITLE14=O Vento Minuano
TTITLE15=Moço Triste
TTITLE16=A Volta do Tropeiro Velho
TTITLE17=Casalzinho Violento
TTITLE18=Flor Gaúcha
TTITLE19=Moda da Mula Preta
EXTD=
EXTT0=
EXTT1=
EXTT2=
EXTT3=
EXTT4=
EXTT5=
EXTT6=
EXTT7=
EXTT8=
EXTT9=
EXTT10=
EXTT11=
EXTT12=
EXTT13=
EXTT14=
EXTT15=
EXTT16=
EXTT17=
EXTT18=
EXTT19=
PLAYORDER=
